<svg height="192pt" viewBox="-2 0 192 192" width="192pt" xmlns="http://www.w3.org/2000/svg"><path d="m23.773438 5.800781c-1.558594-1.5625-4.09375-1.5625-5.65625 0l-11.316407 11.316407c-1.5625 1.5625-1.5625 4.097656 0 5.65625l38.460938 38.457031 16.96875-16.96875zm0 0"/><path d="m186.699219 168.726562-113.15625-113.152343-16.96875 16.96875 113.152343 113.15625c1.558594 1.5625 4.09375 1.5625 5.65625 0l11.316407-11.316407c1.5625-1.5625 1.5625-4.097656 0-5.65625zm0 0"/><path d="m96 22c7.175781.007812 12.992188 5.824219 13 13 0 1.65625 1.34375 3 3 3s3-1.34375 3-3c.007812-7.175781 5.824219-12.992188 13-13 1.65625 0 3-1.34375 3-3s-1.34375-3-3-3c-7.175781-.007812-12.992188-5.824219-13-13 0-1.65625-1.34375-3-3-3s-3 1.34375-3 3c-.007812 7.175781-5.824219 12.992188-13 13-1.65625 0-3 1.34375-3 3s1.34375 3 3 3zm0 0"/><path d="m112 170c-7.175781-.007812-12.992188-5.824219-13-13 0-1.65625-1.34375-3-3-3s-3 1.34375-3 3c-.007812 7.175781-5.824219 12.992188-13 13-1.65625 0-3 1.34375-3 3s1.34375 3 3 3c7.175781.007812 12.992188 5.824219 13 13 0 1.65625 1.34375 3 3 3s3-1.34375 3-3c.007812-7.175781 5.824219-12.992188 13-13 1.65625 0 3-1.34375 3-3s-1.34375-3-3-3zm0 0"/><path d="m35 117c-7.175781-.007812-12.992188-5.824219-13-13 0-1.65625-1.34375-3-3-3s-3 1.34375-3 3c-.007812 7.175781-5.824219 12.992188-13 13-1.65625 0-3 1.34375-3 3s1.34375 3 3 3c7.175781.007812 12.992188 5.824219 13 13 0 1.65625 1.34375 3 3 3s3-1.34375 3-3c.007812-7.175781 5.824219-12.992188 13-13 1.65625 0 3-1.34375 3-3s-1.34375-3-3-3zm0 0"/></svg>